<svg xmlns="http://www.w3.org/2000/svg" xmlns:xlink="http://www.w3.org/1999/xlink" viewBox="0 0 382.61 143.23"><defs><style>.cls-1{fill:#fff;}.cls-2{font-size:27.59px;fill:#e18547;font-family:MuseoSans-700, Museo Sans;letter-spacing:0.02em;}.cls-3,.cls-4{fill:#424242;}.cls-3{letter-spacing:0.02em;}.cls-5{fill:#db8758;}.cls-6{mask:url(#mask);}.cls-7{fill:#2d2d2d;}</style><mask id="mask" x="0" y="0" width="382.61" height="105.89" maskUnits="userSpaceOnUse"><path class="cls-1" d="M106.91,58.55a37.51,37.51,0,0,0-3.51-8.79,35,35,0,0,0-5.54-7.42,34.4,34.4,0,0,0-7.37-5.73,36.57,36.57,0,0,0-8.9-3.67A39.18,39.18,0,0,0,52,36.79a37.59,37.59,0,0,0-17.48,22.5,36.36,36.36,0,0,0-1.35,9.9,37.79,37.79,0,0,0,2.72,14.39,35.68,35.68,0,0,0,7.58,11.64A35.25,35.25,0,0,0,55,103a37.59,37.59,0,0,0,14.81,2.85,38.65,38.65,0,0,0,19.46-5.15A38.14,38.14,0,0,0,103,87.22a37.21,37.21,0,0,0,3.8-8.92,36.34,36.34,0,0,0,1.35-9.9A38.67,38.67,0,0,0,106.91,58.55ZM86.76,82a43,43,0,0,1-3.19,10.8,20.35,20.35,0,0,1-5.36,7.29,12,12,0,0,1-15.1,0,20.34,20.34,0,0,1-5.36-7.29A42.93,42.93,0,0,1,54.55,82a78.63,78.63,0,0,1-1.06-13.25,78.77,78.77,0,0,1,1.06-13.23,42.94,42.94,0,0,1,3.19-10.83,20.35,20.35,0,0,1,5.36-7.29,12,12,0,0,1,15.1,0,20.36,20.36,0,0,1,5.36,7.29,43,43,0,0,1,3.19,10.83,78.84,78.84,0,0,1,1.06,13.23A78.7,78.7,0,0,1,86.76,82Z"/><path class="cls-1" d="M168.77,102.88a1.07,1.07,0,0,1,.61.34.6.6,0,0,1,.13.5.85.85,0,0,1-.29.47,1,1,0,0,1-.66.21H149.44a1.47,1.47,0,0,1-.92-.26,1,1,0,0,1-.34-.84v-3.12a20.19,20.19,0,0,1-5.76,3.88,20.54,20.54,0,0,1-8.77,1.66,23.81,23.81,0,0,1-7.26-1,14.7,14.7,0,0,1-4.86-2.54,11.14,11.14,0,0,1-3-3.64,17.05,17.05,0,0,1-1.48-4.28,27.11,27.11,0,0,1-.53-4.41q-.08-2.19-.08-4.09V65.18a6.15,6.15,0,0,0-.84-3.41,6.8,6.8,0,0,0-1.93-2,7.05,7.05,0,0,0-2.11-1l-1.45-.37a.82.82,0,0,1-.61-.32.67.67,0,0,1-.13-.53.86.86,0,0,1,.29-.47,1,1,0,0,1,.66-.21h19.12q1.27,0,1.27,1.37V89.15a30.85,30.85,0,0,0,.4,4.22,12.08,12.08,0,0,0,1.27,3.83A7.38,7.38,0,0,0,135,100a8.25,8.25,0,0,0,4.46,1.06,7.82,7.82,0,0,0,4.67-1.24,8.07,8.07,0,0,0,2.61-3.14,13.32,13.32,0,0,0,1.16-4.2,38.78,38.78,0,0,0,.26-4.41V65.18a6.15,6.15,0,0,0-.84-3.41,6.81,6.81,0,0,0-1.93-2,7.05,7.05,0,0,0-2.11-1l-1.45-.37a.82.82,0,0,1-.61-.32.67.67,0,0,1-.13-.53.85.85,0,0,1,.29-.47,1,1,0,0,1,.66-.21h19.12q1.27,0,1.27,1.37V96.12a6.13,6.13,0,0,0,.84,3.41,6.8,6.8,0,0,0,1.93,2,7.65,7.65,0,0,0,2.11,1A11.4,11.4,0,0,0,168.77,102.88Z"/><path class="cls-1" d="M244,92.21a1,1,0,0,1,1-.66c.44.05.66.34.66.87v11q0,1-1.11,1H204.1q-1.06,0-1.27-.63a1.65,1.65,0,0,1,.21-1.37q.1-.16,1.08-1.82t2.59-4.3q1.61-2.64,3.64-6l4.2-7q2.16-3.62,4.36-7.23l4-6.68q1.85-3.06,3.22-5.39t2-3.33c.14-.21.14-.38,0-.5a.7.7,0,0,0-.47-.18h-6A15.09,15.09,0,0,0,215.67,61a16.3,16.3,0,0,0-4.22,2.59,14.66,14.66,0,0,0-2.64,2.93,19.52,19.52,0,0,0-1.27,2.14q-.42.79-1.06.69c-.42-.07-.63-.37-.63-.9V57.89q0-1,1.11-1h37.18c.81,0,1.26.23,1.35.69a1.69,1.69,0,0,1-.24,1.27q-.11.16-1.08,1.8t-2.56,4.25q-1.58,2.62-3.59,6t-4.2,7l-4.36,7.21-4,6.68-3.25,5.41-2.36,3.92c-.07.11,0,.2.11.2h9.82a14.49,14.49,0,0,0,6.07-1.16,16.43,16.43,0,0,0,4.22-2.69,15,15,0,0,0,2.64-3A22.26,22.26,0,0,0,244,92.21Z"/><path class="cls-1" d="M295.57,99.55a1.15,1.15,0,0,1,1.16.29,1,1,0,0,1,.05,1.19,7.77,7.77,0,0,1-2.93,2.85,12.41,12.41,0,0,1-2.9,1.16,15.23,15.23,0,0,1-4,.47,10.48,10.48,0,0,1-5.41-1.29,7.48,7.48,0,0,1-3-3,.57.57,0,0,0-.61-.37,1.12,1.12,0,0,0-.66.32c-.11.11-.43.4-1,.87a13.21,13.21,0,0,1-2.32,1.53,20.37,20.37,0,0,1-3.62,1.48,16.34,16.34,0,0,1-4.86.66,20.73,20.73,0,0,1-7.89-1.32,14.78,14.78,0,0,1-5.18-3.41,12.52,12.52,0,0,1-2.85-4.7,16.35,16.35,0,0,1-.87-5.2A11.76,11.76,0,0,1,251,83.82a14.21,14.21,0,0,1,6.1-4.65,19.82,19.82,0,0,1,4.2-1.14l4.36-.71q2.16-.37,4.25-.93a12.67,12.67,0,0,0,3.93-1.82,7,7,0,0,0,2.72-3.38,12.51,12.51,0,0,0,.76-4.38,11.66,11.66,0,0,0-.45-3.25,9.06,9.06,0,0,0-1.27-2.72,6.42,6.42,0,0,0-3.1-2.43,1.14,1.14,0,0,0-.29-.06q-2.94-.25-4.19,1.12a8.5,8.5,0,0,0-1.66,2.8q-.61,1.64-1.13,3.41a7.66,7.66,0,0,1-1.69,3,5.85,5.85,0,0,1-2.46,1.5,9.07,9.07,0,0,1-2.88.5,6.39,6.39,0,0,1-2.54-.47,5.77,5.77,0,0,1-1.9-1.29,5.32,5.32,0,0,1-1.19-1.9,6.62,6.62,0,0,1-.4-2.3,7.48,7.48,0,0,1,.79-3.27,7.61,7.61,0,0,1,2.83-3,17.64,17.64,0,0,1,5.47-2.14,38.59,38.59,0,0,1,8.71-.82,36.71,36.71,0,0,1,10,1.19,17.53,17.53,0,0,1,6.76,3.46,13.11,13.11,0,0,1,3.8,5.62,22.79,22.79,0,0,1,1.19,7.63q0,5.12-.32,9.61T290.94,91a38,38,0,0,0,.13,5.7q.26,2.24,1.48,2.77a2.71,2.71,0,0,0,1.32.24A11.87,11.87,0,0,0,295.57,99.55ZM277.24,75.95a.41.41,0,0,0-.26-.42.39.39,0,0,0-.47.16c-.28.32-.54.62-.77.9a13.41,13.41,0,0,1-.92,1q-1,1.06-2.06,2l-2.11,1.87-2.09,1.69A17.52,17.52,0,0,0,266.63,85a10.65,10.65,0,0,0-2,3.46,11.91,11.91,0,0,0-.66,4,10.22,10.22,0,0,0,.42,2.88,7.79,7.79,0,0,0,1.29,2.59,6.69,6.69,0,0,0,2.22,1.85,6.86,6.86,0,0,0,3.25.71,5.48,5.48,0,0,0,3.09-.79,5.94,5.94,0,0,0,1.85-1.9,7.86,7.86,0,0,0,.92-2.25,8.36,8.36,0,0,0,.26-1.77Z"/><path class="cls-1" d="M324.29,58.47a6,6,0,0,0-3.88,1.45,11.77,11.77,0,0,0-3,4.09,25.35,25.35,0,0,0-2,6.36,45.41,45.41,0,0,0-.69,8.21,26.68,26.68,0,0,0,1.14,8.11,18.33,18.33,0,0,0,3.14,6,13.84,13.84,0,0,0,4.7,3.8,13,13,0,0,0,5.81,1.32A16.24,16.24,0,0,0,335,97a27.55,27.55,0,0,0,4.44-2,24.53,24.53,0,0,0,3.17-2.11,10.1,10.1,0,0,1,1.72-1.22,1,1,0,0,1,1.19.13q.45.45,0,1.35-.32.58-1.06,1.74a20.73,20.73,0,0,1-2,2.56,29.35,29.35,0,0,1-3,2.88,22.35,22.35,0,0,1-4,2.69,24.48,24.48,0,0,1-5.17,2,25,25,0,0,1-6.42.77,28.91,28.91,0,0,1-9.88-1.58A19.87,19.87,0,0,1,301.72,92a29,29,0,0,1-1.66-10.17,28.93,28.93,0,0,1,1.27-8.92,24.61,24.61,0,0,1,3.35-6.81,22.25,22.25,0,0,1,4.78-4.91A28.25,28.25,0,0,1,315,57.92a27.29,27.29,0,0,1,5.57-1.79,25.22,25.22,0,0,1,5-.56,30.81,30.81,0,0,1,6.6.66,19.34,19.34,0,0,1,5.17,1.85,10.43,10.43,0,0,1,3.38,2.8,5.64,5.64,0,0,1,1.21,3.46,6.1,6.1,0,0,1-.55,2.75,5.4,5.4,0,0,1-3.38,2.85,7.86,7.86,0,0,1-5.18-.26,5,5,0,0,1-2.3-2,8.36,8.36,0,0,1-1.11-2.59q-.42-1.58-1-3.06a8.48,8.48,0,0,0-1.45-2.54A3.28,3.28,0,0,0,324.29,58.47Z"/></mask></defs><title>hero_logo</title><g id="Layer_2" data-name="Layer 2"><g id="Layer_1-2" data-name="Layer 1"><g id="Hero"><text class="cls-2" transform="translate(133.6 137.43)">Know it? <tspan class="cls-3" x="124.23" y="0">Play it!</tspan></text><path class="cls-4" d="M168.77,102.88a1.07,1.07,0,0,1,.61.34.6.6,0,0,1,.13.5.85.85,0,0,1-.29.47,1,1,0,0,1-.66.21H149.44a1.47,1.47,0,0,1-.92-.26,1,1,0,0,1-.34-.84v-3.12a20.19,20.19,0,0,1-5.76,3.88,20.54,20.54,0,0,1-8.77,1.66,23.81,23.81,0,0,1-7.26-1,14.7,14.7,0,0,1-4.86-2.54,11.14,11.14,0,0,1-3-3.64,17.05,17.05,0,0,1-1.48-4.28,27.11,27.11,0,0,1-.53-4.41q-.08-2.19-.08-4.09V65.18a6.15,6.15,0,0,0-.84-3.41,6.8,6.8,0,0,0-1.93-2,7.05,7.05,0,0,0-2.11-1l-1.45-.37a.82.82,0,0,1-.61-.32.67.67,0,0,1-.13-.53.86.86,0,0,1,.29-.47,1,1,0,0,1,.66-.21h19.12q1.27,0,1.27,1.37V89.15a30.85,30.85,0,0,0,.4,4.22,12.08,12.08,0,0,0,1.27,3.83A7.38,7.38,0,0,0,135,100a8.25,8.25,0,0,0,4.46,1.06,7.82,7.82,0,0,0,4.67-1.24,8.07,8.07,0,0,0,2.61-3.14,13.32,13.32,0,0,0,1.16-4.2,38.78,38.78,0,0,0,.26-4.41V65.18a6.15,6.15,0,0,0-.84-3.41,6.81,6.81,0,0,0-1.93-2,7.05,7.05,0,0,0-2.11-1l-1.45-.37a.82.82,0,0,1-.61-.32.67.67,0,0,1-.13-.53.85.85,0,0,1,.29-.47,1,1,0,0,1,.66-.21h19.12q1.27,0,1.27,1.37V96.12a6.13,6.13,0,0,0,.84,3.41,6.8,6.8,0,0,0,1.93,2,7.65,7.65,0,0,0,2.11,1A11.4,11.4,0,0,0,168.77,102.88Z"/><path class="cls-4" d="M244,92.21a1,1,0,0,1,1-.66c.44.05.66.34.66.87v11q0,1-1.11,1H204.1q-1.06,0-1.27-.63a1.65,1.65,0,0,1,.21-1.37q.1-.16,1.08-1.82t2.59-4.3q1.61-2.64,3.64-6l4.2-7q2.16-3.62,4.36-7.23l4-6.68q1.85-3.06,3.22-5.39t2-3.33c.14-.21.14-.38,0-.5a.7.7,0,0,0-.47-.18h-6A15.09,15.09,0,0,0,215.67,61a16.3,16.3,0,0,0-4.22,2.59,14.66,14.66,0,0,0-2.64,2.93,19.52,19.52,0,0,0-1.27,2.14q-.42.79-1.06.69c-.42-.07-.63-.37-.63-.9V57.89q0-1,1.11-1h37.18c.81,0,1.26.23,1.35.69a1.69,1.69,0,0,1-.24,1.27q-.11.16-1.08,1.8t-2.56,4.25q-1.58,2.62-3.59,6t-4.2,7l-4.36,7.21-4,6.68-3.25,5.41-2,3.38q-.42.74.42.74h9.19a14.49,14.49,0,0,0,6.07-1.16,16.43,16.43,0,0,0,4.22-2.69,15,15,0,0,0,2.64-3A22.26,22.26,0,0,0,244,92.21Z"/><path class="cls-4" d="M295.57,99.55a1.15,1.15,0,0,1,1.16.29,1,1,0,0,1,.05,1.19,7.77,7.77,0,0,1-2.93,2.85,12.41,12.41,0,0,1-2.9,1.16,15.23,15.23,0,0,1-4,.47,10.48,10.48,0,0,1-5.41-1.29,7.48,7.48,0,0,1-3-3,.57.57,0,0,0-.61-.37,1.12,1.12,0,0,0-.66.32c-.11.11-.43.4-1,.87a13.21,13.21,0,0,1-2.32,1.53,20.37,20.37,0,0,1-3.62,1.48,16.34,16.34,0,0,1-4.86.66,20.73,20.73,0,0,1-7.89-1.32,14.78,14.78,0,0,1-5.18-3.41,12.52,12.52,0,0,1-2.85-4.7,16.35,16.35,0,0,1-.87-5.2A11.76,11.76,0,0,1,251,83.82a14.21,14.21,0,0,1,6.1-4.65,19.82,19.82,0,0,1,4.2-1.14l4.36-.71q2.16-.37,4.25-.93a12.67,12.67,0,0,0,3.93-1.82,7,7,0,0,0,2.72-3.38,12.51,12.51,0,0,0,.76-4.38,11.66,11.66,0,0,0-.45-3.25,9.06,9.06,0,0,0-1.27-2.72,6.81,6.81,0,0,0-1.9-1.85,4.9,4.9,0,0,0-5.68.47,8.5,8.5,0,0,0-1.66,2.8q-.61,1.64-1.13,3.41a7.66,7.66,0,0,1-1.69,3,5.85,5.85,0,0,1-2.46,1.5,9.07,9.07,0,0,1-2.88.5,6.39,6.39,0,0,1-2.54-.47,5.77,5.77,0,0,1-1.9-1.29,5.32,5.32,0,0,1-1.19-1.9,6.62,6.62,0,0,1-.4-2.3,7.48,7.48,0,0,1,.79-3.27,7.61,7.61,0,0,1,2.83-3,17.64,17.64,0,0,1,5.47-2.14,38.59,38.59,0,0,1,8.71-.82,36.71,36.71,0,0,1,10,1.19,17.53,17.53,0,0,1,6.76,3.46,13.11,13.11,0,0,1,3.8,5.62,22.79,22.79,0,0,1,1.19,7.63q0,5.12-.32,9.61T290.94,91a38,38,0,0,0,.13,5.7q.26,2.24,1.48,2.77a2.71,2.71,0,0,0,1.32.24A11.87,11.87,0,0,0,295.57,99.55ZM277.24,75.95a.41.41,0,0,0-.26-.42.39.39,0,0,0-.47.16c-.28.32-.54.62-.77.9a13.41,13.41,0,0,1-.92,1q-1,1.06-2.06,2l-2.11,1.87-2.09,1.69A17.52,17.52,0,0,0,266.63,85a10.65,10.65,0,0,0-2,3.46,11.91,11.91,0,0,0-.66,4,10.22,10.22,0,0,0,.42,2.88,7.79,7.79,0,0,0,1.29,2.59,6.69,6.69,0,0,0,2.22,1.85,6.86,6.86,0,0,0,3.25.71,5.48,5.48,0,0,0,3.09-.79,5.94,5.94,0,0,0,1.85-1.9,7.86,7.86,0,0,0,.92-2.25,8.36,8.36,0,0,0,.26-1.77Z"/><path class="cls-4" d="M324.29,58.47a6,6,0,0,0-3.88,1.45,11.77,11.77,0,0,0-3,4.09,25.35,25.35,0,0,0-2,6.36,45.41,45.41,0,0,0-.69,8.21,26.68,26.68,0,0,0,1.14,8.11,18.33,18.33,0,0,0,3.14,6,13.84,13.84,0,0,0,4.7,3.8,13,13,0,0,0,5.81,1.32A16.24,16.24,0,0,0,335,97a27.55,27.55,0,0,0,4.44-2,24.53,24.53,0,0,0,3.17-2.11,10.1,10.1,0,0,1,1.72-1.22,1,1,0,0,1,1.19.13q.45.45,0,1.35-.32.58-1.06,1.74a20.73,20.73,0,0,1-2,2.56,29.35,29.35,0,0,1-3,2.88,22.35,22.35,0,0,1-4,2.69,24.48,24.48,0,0,1-5.17,2,25,25,0,0,1-6.42.77,28.91,28.91,0,0,1-9.88-1.58A19.87,19.87,0,0,1,301.72,92a29,29,0,0,1-1.66-10.17,28.93,28.93,0,0,1,1.27-8.92,24.61,24.61,0,0,1,3.35-6.81,22.25,22.25,0,0,1,4.78-4.91A28.25,28.25,0,0,1,315,57.92a27.29,27.29,0,0,1,5.57-1.79,25.22,25.22,0,0,1,5-.56,30.81,30.81,0,0,1,6.6.66,19.34,19.34,0,0,1,5.17,1.85,10.43,10.43,0,0,1,3.38,2.8,5.64,5.64,0,0,1,1.21,3.46,6.1,6.1,0,0,1-.55,2.75,5.4,5.4,0,0,1-3.38,2.85,7.86,7.86,0,0,1-5.18-.26,5,5,0,0,1-2.3-2,8.36,8.36,0,0,1-1.11-2.59q-.42-1.58-1-3.06a8.48,8.48,0,0,0-1.45-2.54A3.28,3.28,0,0,0,324.29,58.47Z"/><path class="cls-5" d="M92.78,131.82a52.16,52.16,0,0,1-12.89-1.53,82.61,82.61,0,0,1-11.46-3.8Q63,124.22,58.11,121.6t-9.4-4.78a62.05,62.05,0,0,0-8.77-3.46,22,22,0,0,0-8.42-.93q-.9.11-1.14-.37t.45-1.06a17.47,17.47,0,0,1,5.41-2.9,22.77,22.77,0,0,1,7.68-1.21,81,81,0,0,1,10.83.71q5.28.71,10.43,1.74t10.17,2.27q5,1.24,10,2.27t10,1.74a72.06,72.06,0,0,0,10.14.71q3.8,0,7-.32a50.65,50.65,0,0,0,6.07-1,41.21,41.21,0,0,0,5.41-1.58,47.46,47.46,0,0,0,5-2.22q1.21-.63,1.61-.11t-.19,1.58a32.13,32.13,0,0,1-5.44,6.79,39.66,39.66,0,0,1-8.32,6.12,49.93,49.93,0,0,1-10.88,4.44A48,48,0,0,1,92.78,131.82Z"/><path class="cls-4" d="M106.91,58.55a37.51,37.51,0,0,0-3.51-8.79,35,35,0,0,0-5.54-7.42,34.4,34.4,0,0,0-7.37-5.73,36.57,36.57,0,0,0-8.9-3.67A39.18,39.18,0,0,0,52,36.79a37.59,37.59,0,0,0-17.48,22.5,36.36,36.36,0,0,0-1.35,9.9,37.79,37.79,0,0,0,2.72,14.39,35.68,35.68,0,0,0,7.58,11.64A35.25,35.25,0,0,0,55,103a37.59,37.59,0,0,0,14.81,2.85,38.65,38.65,0,0,0,19.46-5.15A38.14,38.14,0,0,0,103,87.22a37.21,37.21,0,0,0,3.8-8.92,36.34,36.34,0,0,0,1.35-9.9A38.67,38.67,0,0,0,106.91,58.55ZM86.76,82a43,43,0,0,1-3.19,10.8,20.35,20.35,0,0,1-5.36,7.29,12,12,0,0,1-15.1,0,20.34,20.34,0,0,1-5.36-7.29A42.93,42.93,0,0,1,54.55,82a78.63,78.63,0,0,1-1.06-13.25,78.77,78.77,0,0,1,1.06-13.23,42.94,42.94,0,0,1,3.19-10.83,20.35,20.35,0,0,1,5.36-7.29,12,12,0,0,1,15.1,0,20.36,20.36,0,0,1,5.36,7.29,43,43,0,0,1,3.19,10.83,78.84,78.84,0,0,1,1.06,13.23A78.7,78.7,0,0,1,86.76,82Z"/><path class="cls-4" d="M170.19,104.73V100.6q5.69-.2,6.57-.71t1.13-2.82q.4-3.18.4-14,0-4.69-.15-8.68l-.15-5.9q0-2.93-.63-3.61t-3.4-.78l-3.78-.15V60.05q12.14-.92,20-4.33l1.26,1q-.76,9.64-.76,28.07A127.88,127.88,0,0,0,191,97.67a2.92,2.92,0,0,0,.93,2q.68.45,6.58.91v4.13q-9.09-.3-14.05-.3Q181.83,104.43,170.19,104.73Zm14-73.08A7.83,7.83,0,0,1,192,39.5a7.84,7.84,0,1,1-7.81-7.86Z"/><g class="cls-6"><path class="cls-7" d="M375.18,87.76c-2.63,2.5-11.67,4.68-15.29,4.68s-3.63-12.23-7.26-12.23-3.63,2.57-7.25,2.57-3.63-6.22-7.25-6.22-3.63,16.72-7.25,16.72-3.63-14.48-7.26-14.48S320,92.45,316.36,92.45s-3.63-18.28-7.25-18.28-3.63-7.41-7.25-7.41-3.63,13.62-7.26,13.62-3.63,8.32-7.25,8.32-3.63-14.48-7.25-14.48-3.63,21-7.26,21-3.63-30.76-7.25-30.76-3.63,19-7.26,19-3.63.7-7.26.7-3.63-4-7.25-4-3.63-14.63-7.26-14.63-3.63.34-7.25.34S225.67,91,222,91s-3.63-12-7.25-12-3.63,7.84-7.25,7.84-3.63-11.27-7.25-11.27-3.63,7.88-7.26,7.88h-7.25c-3.63,0-3.63-13.55-7.25-13.55s-3.63,5.51-7.26,5.51-3.63,1.77-7.25,1.77S160.39,68,156.76,68s-3.63,18.16-7.25,18.16-3.63-15.31-7.26-15.31S138.62,69,135,69s-3.63,17.3-7.26,17.3-3.63-6.87-7.26-6.87-3.63,4.74-7.26,4.74-3.63-8.06-7.26-8.06-3.63-5.87-7.26-5.87-3.63,1.84-7.26,1.84-3.63,2.32-7.26,2.32-3.63,5.35-7.26,5.35-3.63-8.36-7.26-8.36S66,94.21,62.42,94.21s-3.63-5.39-7.26-5.39S51.53,65.2,47.9,65.2s-3.63-.51-7.26-.51-3.63,7-7.26,7-3.63,23.61-7.26,23.61-3.63-11.33-7.27-11.33S7,89.41,4.39,86.91s16.49-11,16.49-14.48,4.29-3.45,4.29-6.9-1.86-3.45-1.86-6.9S27,55.18,27,51.73s-.83-3.45-.83-6.9S9.64,41.39,9.64,37.94,24.47,34.49,24.47,31,14.2,27.58,14.2,24.13-2.24,7.71.26,5.32s15,23.39,18.58,23.39,3.63-5.06,7.26-5.06,3.63-1.31,7.25-1.31,3.63-9.4,7.25-9.4,3.63,12.32,7.25,12.32,3.63,4,7.26,4,3.63,4.55,7.25,4.55S66,1.46,69.62,1.46s3.63,18.23,7.25,18.23,3.63-9.84,7.26-9.84,3.63-8.79,7.25-8.79S95,11,98.64,11s3.63,18,7.26,18,3.63,3,7.25,3,3.63-5,7.26-5,3.63-14.45,7.26-14.45,3.63,10.36,7.25,10.36S138.55.76,142.17.76s3.63,5.19,7.25,5.19,3.63,28.86,7.26,28.86,3.63-28.55,7.25-28.55,3.63-2.48,7.25-2.48,3.63,11.62,7.25,11.62,3.63-13.62,7.26-13.62,3.63,17.69,7.25,17.69,3.63-14,7.25-14,3.63,25.71,7.26,25.71S211.08,0,214.71,0s3.63,2,7.26,2,3.63,30.84,7.25,30.84,3.63-26.93,7.26-26.93S240.1,10,243.73,10s3.63,5.69,7.26,5.69,3.63,3.91,7.26,3.91,3.63-4.89,7.26-4.89,3.63-12,7.26-12,3.63,24.61,7.26,24.61S283.65,25,287.28,25,290.91,16,294.54,16s3.63-11.34,7.26-11.34,3.63,25.82,7.26,25.82,3.63-2,7.26-2,3.63,4.63,7.26,4.63,3.63-31.18,7.26-31.18,3.63,25.18,7.26,25.18,3.63-10.72,7.26-10.72,3.63,2.06,7.26,2.06,3.63,13.35,7.27,13.35S371,7.93,373.59,10.43s-14.18,10.24-14.18,13.69-6.07,3.45-6.07,6.9,17.17,3.45,17.17,6.9-7.36,3.45-7.36,6.9,19.47,3.45,19.47,6.9-21.13,3.45-21.13,6.9-1.93,3.45-1.93,6.9,13.59-.19,15.21,2.86C379,76.28,377.68,85.38,375.18,87.76Z"/></g><path class="cls-7" d="M184.67,47.62A8,8,0,0,0,190.35,34a8,8,0,0,0-13.64,5.68,8,8,0,0,0,8,8Z"/><path class="cls-7" d="M187.77,94.3c2.13-.4,2.22-13.47,2.46-15a70,70,0,0,0,1.32-10c0-1.42,1.47-11.38.58-12.09l-1.28-1q-8,3.48-20.4,4.42v4l3.85.15q2.82.1,3.47.8t.64,3.67c0,7-.53,14.9,1.79,15.39.94.2,4.84-11.16,6.3-9.33C186.85,75.7,187.48,94.36,187.77,94.3Z"/></g></g></g></svg>